<?xml version="1.0" encoding="utf-8"?>
<!DOCTYPE svg PUBLIC "-//W3C//DTD SVG 1.1//EN" "http://www.w3.org/Graphics/SVG/1.1/DTD/svg11.dtd">
<svg version="1.1" id="pagekit-logo" xmlns="http://www.w3.org/2000/svg" xmlns:xlink="http://www.w3.org/1999/xlink" x="0px"
	 y="0px" width="530px" height="300px" viewBox="0 0 530 300" enable-background="new 0 0 530 300" xml:space="preserve">
<polygon fill="#212121" points="137,118 137,183 163,183 163,173 147,173 147,128 179,128 179,164 163,164 163,173 189,173 189,118 
	"/>
<g>
	<path fill="#212121" d="M232.835,162.059c-5.89,0-8.494-4.03-9.175-5.209v15.189h-3.534v-38.748h3.224l0.31,4.96
		c0.31-0.62,3.286-5.518,9.795-5.518c7.439,0,12.089,6.261,12.089,14.631S240.275,162.059,232.835,162.059z M232.835,135.647
		c-5.58,0-9.299,5.332-9.299,11.717c0,6.324,3.41,11.717,8.989,11.717s9.3-5.332,9.3-11.717
		C241.825,141.041,238.415,135.647,232.835,135.647z"/>
	<path fill="#212121" d="M269.105,161.5c0,0-0.621-1.859-0.621-3.72c-1.674,2.17-4.649,4.278-9.298,4.278
		c-4.65,0-8.68-2.729-8.68-8.494s4.96-7.625,7.13-8.246s5.951-1.178,10.725-1.178v-2.17c0-4.65-3.286-6.324-7.005-6.324
		s-6.758,1.364-8.37,2.542l-1.426-2.728c2.108-1.302,5.58-2.728,9.609-2.728c4.03,0,6.448,1.178,7.936,2.479
		c1.488,1.302,2.789,3.348,2.789,7.688v13.019c0,2.79,0.621,4.34,1.24,5.58H269.105z M268.361,146.869
		c-1.551,0-5.518,0.31-7.316,0.62s-6.819,1.302-6.819,5.952c0,4.649,3.41,5.827,5.89,5.827s6.386-1.487,8.246-5.207V146.869z"/>
	<path fill="#212121" d="M301.035,167.699c-1.551,2.17-4.961,4.65-10.85,4.65c-5.891,0-9.734-2.666-10.354-3.286l1.736-2.665
		c0.619,0.619,4.4,2.852,8.617,2.852c4.215,0,6.633-1.551,7.811-3.038c1.18-1.488,1.984-4.092,1.984-8.122v-2.479
		c-0.186,0.372-2.666,5.579-9.795,5.579s-11.779-5.889-11.779-14.259c0-8.369,5.58-14.197,12.398-14.197
		c6.82,0,8.928,4.835,9.176,5.518l0.621-4.96h2.914v23.25C303.516,162.74,302.584,165.529,301.035,167.699z M291.301,135.647
		c-5.455,0-9.176,5.083-9.176,11.283c0,6.2,3.41,11.284,8.805,11.284c5.455,0,9.176-5.084,9.176-11.284
		C300.105,140.731,296.695,135.647,291.301,135.647z"/>
	<path fill="#212121" d="M314.676,147.861c0,6.51,3.348,11.097,9.299,11.097c5.953,0,8.99-3.348,8.99-3.348l1.736,2.418
		c0,0-3.596,4.03-11.035,4.03s-12.711-5.518-12.711-14.632c0-9.175,5.58-14.693,12.711-14.693c7.129,0,11.654,5.518,11.654,13.267
		v1.86H314.676z M323.541,135.647c-6.076,0-8.555,5.394-8.865,9.423h17.049C331.725,140.421,329.555,135.647,323.541,135.647z"/>
	<path fill="#212121" d="M360.74,161.5l-10.727-14.569l-4.029,3.844V161.5h-3.533v-40.608h3.533v26.039l13.516-13.639h4.648
		l-11.779,11.346L365.08,161.5H360.74z"/>
	<path fill="#212121" d="M372.459,126.348c-1.551,0-2.852-1.24-2.852-2.79s1.238-2.852,2.789-2.852c1.549,0,2.852,1.24,2.852,2.79
		S374.008,126.348,372.459,126.348z M370.66,161.5v-28.208h3.533V161.5H370.66z"/>
	<path fill="#212121" d="M388.516,136.082v16.429c0,3.409,0.434,4.712,1.363,5.579c0.992,0.868,2.17,1.055,3.41,1.055
		s2.729-0.435,2.729-0.435l0.496,2.79c-0.932,0.311-2.791,0.62-4.34,0.62c-2.17,0-4.031-0.62-5.395-2.17
		c-1.426-1.55-1.797-3.72-1.797-7.439v-16.429h-4.279v-2.79h4.279l0.494-8.06h3.039v8.06h8.307v2.79H388.516z"/>
</g>
</svg>
